# xmcd CD database file
# Copyright (C) 1995-1998 Ti Kan
#
# Track frame offsets:
#	150
#	16989
#	32338
#	42041
#	55186
#	66551
#	83469
#	96915
#	111226
#	123697
#	137913
#	151963
#	168951
#	183252
#	198073
#	210548
#	223901
#	240584
#	258701
#	268873
#
# Disc length: 3779 seconds
#
# Revision: 1
# Processed by: cddbd v1.5.1PL0 Copyright (c) Steve Scherf et al.
# Submitted via: CDex 1.30JRelease
#
DISCID=1c0ec114
DTITLE=ハワイアン - 永遠のブルーハワイ
DYEAR=1900
DGENRE=Pop
TTITLE0=珊瑚礁の彼方
TTITLE1=ブルーハワイ
TTITLE2=ワイキキの浜辺で
TTITLE3=ハワイの結婚の歌
TTITLE4=真珠貝の歌
TTITLE5=スイート・レイラニ
TTITLE6=小さな竹の橋
TTITLE7=南国の夜
TTITLE8=タ・フワフワイ
TTITLE9=カイマナ・ヒラ
TTITLE10=ハワイアン・サンセット
TTITLE11=ハナレイ・ムーン
TTITLE12=可愛いフラの手
TTITLE13=タイニー・バブルス
TTITLE14=ナカ・プェオ
TTITLE15=マナクーラの月
TTITLE16=マイ・ターネ
TTITLE17=モーニング・デュー
TTITLE18=月の夜は
TTITLE19=恋人よアロハ〜アロハ・オエ
EXTD=ID3G:  13
EXTT0=
EXTT1=
EXTT2=
EXTT3=
EXTT4=
EXTT5=
EXTT6=
EXTT7=
EXTT8=
EXTT9=
EXTT10=
EXTT11=
EXTT12=
EXTT13=
EXTT14=
EXTT15=
EXTT16=
EXTT17=
EXTT18=
EXTT19=
PLAYORDER=
